<?xml version="1.0" standalone="no"?>
<!DOCTYPE svg PUBLIC "-//W3C//DTD SVG 20010904//EN"
 "http://www.w3.org/TR/2001/REC-SVG-20010904/DTD/svg10.dtd">
<svg version="1.0" xmlns="http://www.w3.org/2000/svg"
 width="260.000000pt" height="260.000000pt" viewBox="0 0 260.000000 260.000000"
 preserveAspectRatio="xMidYMid meet">
<metadata>
Created by potrace 1.11, written by Peter Selinger 2001-2013
</metadata>
<g transform="translate(0.000000,260.000000) scale(0.100000,-0.100000)"
fill="#000000" stroke="none">
<path d="M1875 2034 c-38 -8 -112 -35 -163 -60 -166 -80 -284 -222 -341 -409
-21 -68 -24 -100 -24 -215 0 -157 21 -246 87 -365 164 -295 577 -421 878 -269
65 33 159 106 192 148 l24 32 -47 27 -47 26 -56 -53 c-105 -99 -229 -142 -387
-134 -357 19 -589 343 -516 723 51 270 276 455 550 455 140 0 256 -45 354
-137 l55 -53 48 31 47 31 -42 45 c-61 65 -161 128 -252 159 -101 34 -254 42
-360 18z"/>
<path d="M180 1350 l0 -680 60 0 60 0 0 280 0 280 149 0 150 0 188 -277 189
-278 74 -3 c71 -3 73 -2 58 15 -9 10 -98 137 -197 282 l-181 265 69 17 c90 23
138 48 190 100 86 86 124 215 104 349 -26 166 -137 284 -301 319 -32 7 -164
11 -332 11 l-280 0 0 -680z m611 554 c78 -23 151 -98 174 -178 33 -115 1 -243
-79 -313 -71 -63 -121 -73 -366 -73 l-220 0 0 290 0 290 218 0 c171 0 230 -3
273 -16z"/>
</g>
</svg>
